<svg xmlns="http://www.w3.org/2000/svg" width="200" height="200" viewBox="-3 -3 206 206" fill="none"><g id="deeditor_bgCarrier" stroke-width="0">
    <rect id="dee_c_e" x="-3" y="-3" width="206" height="206" rx="0" fill="#0c0c0c" strokewidth="0"/>
  </g>
    <g clip-path="url(#clip0_234_943)">
        <path fill-rule="evenodd" clip-rule="evenodd" d="M200 50V4.37114e-06L100 0V49.9803C99.9893 22.3751 77.6077 4.37114e-06 50 4.37114e-06H2.18557e-06V100H50C22.3858 100 -1.20706e-06 122.386 0 150L2.18557e-06 200H100L100 150C100 177.614 122.386 200 150 200H200L200 100H150.02C177.625 99.9893 200 77.6077 200 50Z" fill="#ffffff"/>
    </g>
    <defs fill="#000000">
        <linearGradient id="paint0_linear_234_943" x1="27.5" y1="19" x2="149" y2="174.5" gradientUnits="userSpaceOnUse" fill="#000000">
            {" "}
            <stop stop-color="var(--rich-gray)" fill="#000000"/>
            <stop offset="1" stop-color="var(--rich-gray)" fill="#000000"/>
        </linearGradient>
        <clipPath id="clip0_234_943" fill="#000000">
            <rect width="200" height="200" fill="var(--rich-gray)"/>
        </clipPath>
    </defs>
</svg>